#!OML:ASF F:\VICON\USERDATA\INSTALL\rory3\rory3.ASF
:FULLY-SPECIFIED
:DEGREES
73
root 0.4814555095469933 18.180707591602324 14.258452768460907 9.593169468068082 -0.8471892282555729 -1.7465751114114212
lfemur -11.323757596668797 8.157746949002139 -17.244833075930135
ltibia 15.537998797258334
lfoot -8.823840201104273 4.840420099774981
ltoes -5.536673443661569
rfemur -11.583923285279697 -2.1189741074615993 20.14787851496274
rtibia 17.205317188080848
rfoot -12.657262135401943 1.5801938660764598
rtoes 12.4686677315901
lowerback -3.5918856186945005 0.48099592734799546 -0.5267525578833616
upperback 0.7937465619368484 0.5512052524295359 1.1096163595736974
thorax 4.1947223765937105 0.3023184511280373 1.459211310691611
lowerneck -11.211026648375867 -0.46538007302672796 -1.9745226431946221
upperneck 31.086727126769862 -0.7983934405112993 2.2724717625068394
head 12.291869168401757 -0.29046481237979466 1.0257383747945696
lclavicle -1.4858405658266466e-15 5.855722690665149e-16
lhumerus -28.06359738267473 -4.429293171113194 88.48738417808632
lradius 23.653894697736277
lwrist 12.744952157535714
lhand -23.95548717366143 -5.034157222908889
lfingers 7.125019999999999
lthumb 2.5202546098095877 24.933869409072194
rclavicle -1.4858405658266466e-15 5.855722690665149e-16
rhumerus -25.089864366946937 -14.585942866301355 -80.16798705690908
rradius 25.26551667348958
rwrist 37.54106366455858
rhand -18.04611746468172 -26.700350009583225
rfingers 7.125019999999999
rthumb 8.225855066756228 -56.50184136527349
74
root 0.47350336474011684 18.195135011844425 14.256415983274417 9.594392405422838 -0.8637593661170112 -1.7483871908252009
lfemur -11.282705127313092 8.136168351414781 -17.199727066060134
ltibia 15.589326884346242
lfoot -8.53742906739383 4.893973253303244
ltoes -5.374752515337696
rfemur -11.643611732117602 -2.152942600654458 20.201402614733425
rtibia 17.46581423022593
rfoot -12.36268907256304 1.4099537827178388
rtoes 12.69897915037559
lowerback -3.514844252853453 0.4535345749728739 -0.5242644400843861
upperback 0.8900156485615183 0.5189043097502872 1.1302531546836634
thorax 4.329951077771671 0.28155251317486496 1.4864396880363628
lowerneck -11.17632336529887 -0.44478043226608116 -1.9977444698636466
upperneck 31.198342666204063 -0.7498539802556515 2.2583247056057756
head 12.343393097937057 -0.27834768232876733 1.0294325858328004
lclavicle -1.4252962675579402e-15 6.662276066216978e-16
lhumerus -27.19985265289613 -4.875430156165159 88.89115464979726
lradius 23.661777048229318
lwrist 12.363461680901299
lhand -23.853891219704614 -4.9173394038192635
lfingers 7.125019999999999
lthumb 2.618372658712788 25.049758435480335
rclavicle -1.4252962675579404e-15 6.662276066216978e-16
rhumerus -24.678467888465068 -13.682892105443706 -80.53315384696546
rradius 25.533506027982945
rwrist 37.1772532773261
rhand -18.1325575913415 -26.64114439974749
rfingers 7.125019999999999
rthumb 8.142476319336577 -56.4452303354765
75
root 0.46245040061266585 18.156245789608274 13.90578653875524 9.22118812950016 -0.9238931927296133 -1.7705219643689223
lfemur -11.036354269295924 8.174807635147062 -17.22109379569573
ltibia 14.659384170396628
lfoot -8.86884795176171 4.770678173750994
ltoes -5.4038879761412995
rfemur -11.505666630293966 -2.183708507944523 20.24867914330428
rtibia 16.54119134830534
rfoot -12.644784266406203 1.3387535562899924
rtoes 12.582982926912141
lowerback -3.8272551334435816 0.37233915505409365 -0.5464864265529412
upperback 0.7690758816332075 0.4179563166979811 1.1308626255782592
thorax 4.372298402737345 0.22657424684659416 1.4906924318283608
lowerneck -11.201022169942886 -0.43191842865736646 -2.0217701710563816
upperneck 31.361659478262606 -0.7241527829030877 2.228231977453306
head 12.407171086072609 -0.2724003814380577 1.0283939193831992
lclavicle -1.5761770978046084e-15 4.66318640128119e-16
lhumerus -26.636984248792338 -5.863933997638702 89.11363030234668
lradius 23.781927406297797
lwrist 12.316268266651337
lhand -23.901961348063754 -4.965646144501055
lfingers 7.125019999999999
lthumb 2.5719466901555665 25.00082431718641
rclavicle -1.5761770978046084e-15 4.66318640128119e-16
rhumerus -24.373789063093255 -13.08315093513405 -80.86139074192695
rradius 25.91483237356508
rwrist 36.68446792136178
rhand -18.270811231879833 -26.690736721575128
rfingers 7.125019999999999
rthumb 8.009081664131736 -56.49904760112626
76
root 0.45421638205742404 18.150650197574457 13.644592659631044 9.097937973178164 -0.9050268367730536 -1.7941686554654417
lfemur -10.99242612201593 8.111479054752758 -17.190267404975724
ltibia 14.682537682889404
lfoot -8.673929299939116 4.8758697919426535
ltoes -5.333571273026951
rfemur -11.526665291677332 -2.2287103328512035 20.310509274585687
rtibia 16.706631432869237
rfoot -12.38131328462873 1.0657401700589206
rtoes 13.108493021994974
lowerback -3.8223849172989315 0.3225926680855332 -0.5479101667931336
upperback 0.7870961573782371 0.34809685689291264 1.1556722665138428
thorax 4.4395402742615655 0.18775179446320006 1.5151803459865418
lowerneck -11.251179583600196 -0.3964912244149895 -2.0631271926522627
upperneck 31.32134022127549 -0.6420562646633996 2.2148338009486563
head 12.41190596862084 -0.250774064439306 1.037288991370289
lclavicle -1.5591295278900602e-15 4.893544736714126e-16
lhumerus -26.07304315410208 -6.2484746957701685 89.3894468856779
lradius 23.580325512533044
lwrist 11.563778821356681
lhand -23.836879185047604 -4.986548909023317
lfingers 7.125019999999999
lthumb 2.6348017237302765 24.98008694697303
rclavicle -1.5591295278900602e-15 4.893544736714126e-16
rhumerus -24.193634918389737 -12.171106599379355 -81.08175662261004
rradius 26.146371284926833
rwrist 36.36453300573924
rhand -18.33027610834649 -26.67774020352213
rfingers 7.125019999999999
rthumb 7.951722298522148 -56.48892466666736
